HIERARCHY
ROOT Hips
{
	OFFSET 0.000000 0.000000 0.000000
	CHANNELS 6 Xposition Yposition Zposition Zrotation Xrotation Yrotation
	JOINT Spine1
	{
		OFFSET 0.000000 -0.000023 138.847351
		CHANNELS 6 Xposition Yposition Zposition Zrotation Xrotation Yrotation
		JOINT Neck
		{
			OFFSET 0.000000 -0.000018 110.694000
			CHANNELS 6 Xposition Yposition Zposition Zrotation Xrotation Yrotation
			JOINT Head
			{
				OFFSET 0.000000 -9.081811 70.384003
				CHANNELS 6 Xposition Yposition Zposition Zrotation Xrotation Yrotation
				End Site
				{
					OFFSET 0.000000 -0.000014 90.817780
				}
			}
		}
		JOINT LeftShoulder
		{
			OFFSET 18.288349 2.400605 89.379486
			CHANNELS 6 Xposition Yposition Zposition Zrotation Xrotation Yrotation
			JOINT LeftArm
			{
				OFFSET 65.257996 0.000000 0.000000
				CHANNELS 6 Xposition Yposition Zposition Zrotation Xrotation Yrotation
				JOINT LeftForeArm
				{
					OFFSET 127.960495 0.000000 0.000000
					CHANNELS 6 Xposition Yposition Zposition Zrotation Xrotation Yrotation
					JOINT LeftHand
					{
						OFFSET 118.922485 0.000000 0.000000
						CHANNELS 6 Xposition Yposition Zposition Zrotation Xrotation Yrotation
						End Site
						{
							OFFSET 68.113342 0.000000 0.000000
						}
					}
				}
			}
		}
		JOINT RightShoulder
		{
			OFFSET -18.036051 2.400605 89.379486
			CHANNELS 6 Xposition Yposition Zposition Zrotation Xrotation Yrotation
			JOINT RightArm
			{
				OFFSET -65.257996 0.000000 0.000000
				CHANNELS 6 Xposition Yposition Zposition Zrotation Xrotation Yrotation
				JOINT RightForeArm
				{
					OFFSET -127.960503 0.000000 0.000000
					CHANNELS 6 Xposition Yposition Zposition Zrotation Xrotation Yrotation
					JOINT RightHand
					{
						OFFSET -118.922516 0.000000 0.000000
						CHANNELS 6 Xposition Yposition Zposition Zrotation Xrotation Yrotation
						End Site
						{
							OFFSET -68.113342 0.000000 0.000000
						}
					}
				}
			}
		}
	}
	JOINT LeftUpLeg
	{
		OFFSET 45.409000 0.000000 0.000000
		CHANNELS 6 Xposition Yposition Zposition Zrotation Xrotation Yrotation
		JOINT LeftLeg
		{
			OFFSET 0.000000 0.000031 -190.974503
			CHANNELS 6 Xposition Yposition Zposition Zrotation Xrotation Yrotation
			JOINT LeftFoot
			{
				OFFSET 0.000000 0.000033 -200.215012
				CHANNELS 6 Xposition Yposition Zposition Zrotation Xrotation Yrotation
				JOINT LeftToeBase
				{
					OFFSET 0.000000 -68.113487 -29.515839
					CHANNELS 6 Xposition Yposition Zposition Zrotation Xrotation Yrotation
					End Site
					{
						OFFSET 0.000000 -18.163559 0.000000
					}
				}
			}
		}
	}
	JOINT RightUpLeg
	{
		OFFSET -45.409000 0.000000 0.000000
		CHANNELS 6 Xposition Yposition Zposition Zrotation Xrotation Yrotation
		JOINT RightLeg
		{
			OFFSET 0.000000 0.000031 -190.974503
			CHANNELS 6 Xposition Yposition Zposition Zrotation Xrotation Yrotation
			JOINT RightFoot
			{
				OFFSET 0.000000 0.000033 -200.215012
				CHANNELS 6 Xposition Yposition Zposition Zrotation Xrotation Yrotation
				JOINT RightToeBase
				{
					OFFSET 0.000000 -68.113487 -29.515839
					CHANNELS 6 Xposition Yposition Zposition Zrotation Xrotation Yrotation
					End Site
					{
						OFFSET 0.000000 -18.163559 0.000000
					}
				}
			}
		}
	}
}
MOTION
Frames: 5
Frame Time: 0.016667
9.713384 -71.622398 361.125732 -4.637233 13.963985 -1.174991 0.000003 -0.000029 138.847351 -2.881856 -13.231721 -2.822753 0.000003 -0.000012 110.694038 5.294653 7.606904 -3.592870 0.000000 -9.081812 70.384079 6.410673 -1.117806 5.954106 18.288345 2.400611 89.379463 0.403480 -6.542620 -21.624314 65.257996 -0.000024 0.000052 -9.890726 -10.652286 8.268998 127.960518 -0.000005 -0.000010 -9.213684 -15.367477 -6.698742 118.922447 0.000007 -0.000084 22.061513 -12.886841 15.788112 -18.036049 2.400607 89.379463 -6.229802 -1.910979 17.108546 -65.258011 0.000006 -0.000033 23.219124 23.058603 -10.980313 -127.960495 -0.000001 -0.000000 81.401464 41.813694 43.730792 -118.922577 0.000032 -0.000017 3.002496 5.742615 33.037990 45.408997 -0.000010 -0.000030 17.675384 -35.551223 -16.405590 -0.000015 0.000022 -190.974533 9.710048 47.764677 11.735751 0.000004 0.000025 -200.214966 22.050639 -13.382772 5.027699 -0.000001 -68.113487 -29.515839 0.000001 -0.000001 0.000000 -45.409000 -0.000009 -0.000006 14.343056 -24.877103 41.695423 0.000001 0.000045 -190.974533 -21.535786 37.035796 -25.553406 -0.000005 0.000032 -200.215042 -36.339318 -4.879237 -6.010875 0.000003 -68.113495 -29.515841 0.000003 0.000001 -0.000000 
9.693640 -71.661781 361.173767 -4.721323 13.958704 -1.140216 0.000001 -0.000037 138.847397 -2.839671 -13.215173 -2.860774 -0.000004 -0.000024 110.693977 5.307545 7.589051 -3.591661 0.000019 -9.081830 70.384102 6.425912 -1.163389 5.952183 18.288343 2.400598 89.379425 0.406743 -6.551886 -21.620629 65.258018 -0.000013 0.000105 -9.812154 -10.833857 8.251251 127.960495 0.000015 0.000056 -9.157985 -15.410662 -6.667078 118.922516 -0.000042 0.000037 22.059510 -12.933013 15.747387 -18.036068 2.400596 89.379471 -6.200251 -1.905638 17.118510 -65.258011 -0.000006 0.000037 23.188689 23.072797 -10.941967 -127.960480 -0.000038 0.000049 81.340135 41.810624 43.808816 -118.922539 0.000012 0.000069 2.968680 5.690520 33.094176 45.409004 -0.000010 0.000070 17.617339 -35.501995 -16.491468 -0.000004 0.000031 -190.974487 9.725647 47.742309 11.780523 -0.000003 0.000044 -200.215042 22.117493 -13.379470 5.045918 -0.000003 -68.113464 -29.515839 -0.000001 0.000000 -0.000001 -45.408997 -0.000002 0.000059 14.211815 -24.985095 41.607648 -0.000014 0.000033 -190.974503 -21.369575 36.999124 -25.579958 -0.000001 0.000027 -200.214981 -36.269452 -4.829762 -5.965519 -0.000022 -68.113487 -29.515869 -0.000003 0.000001 0.000001 
9.665082 -71.702271 361.216766 -4.793630 13.946120 -1.093921 -0.000001 -0.000031 138.847321 -2.795092 -13.189439 -2.898324 -0.000002 -0.000016 110.694023 5.316898 7.558882 -3.615768 0.000002 -9.081811 70.384109 6.441285 -1.205982 5.962397 18.288359 2.400620 89.379471 0.394939 -6.553210 -21.616290 65.258011 -0.000021 0.000044 -9.732700 -10.925074 8.220715 127.960503 -0.000011 0.000053 -9.131472 -15.421736 -6.671831 118.922546 0.000008 -0.000021 22.055307 -12.941714 15.757499 -18.036057 2.400613 89.379539 -6.185813 -1.883572 17.127898 -65.258018 -0.000009 -0.000006 23.128656 22.956057 -10.896722 -127.960480 -0.000000 0.000058 81.424509 41.786001 43.696019 -118.922607 0.000080 0.000062 2.946281 5.712666 33.119679 45.409000 -0.000004 -0.000023 17.653257 -35.482126 -16.515720 -0.000019 0.000068 -190.974472 9.784674 47.734119 11.699104 0.000004 0.000048 -200.215027 22.107844 -13.385322 5.071582 -0.000015 -68.113464 -29.515837 -0.000002 -0.000001 0.000000 -45.409004 -0.000004 -0.000036 14.003160 -25.146202 41.475398 0.000009 0.000047 -190.974518 -21.167007 36.982794 -25.575256 -0.000002 0.000051 -200.214996 -36.195167 -4.768556 -5.891037 -0.000003 -68.113472 -29.515839 -0.000002 0.000000 0.000000 
9.652121 -71.747009 361.233704 -4.863359 13.927556 -1.071731 -0.000001 -0.000037 138.847305 -2.741774 -13.154842 -2.910456 0.000002 -0.000012 110.694054 5.327950 7.528455 -3.624875 0.000017 -9.081800 70.384140 6.454793 -1.262410 5.949531 18.288353 2.400600 89.379440 0.383214 -6.560925 -21.602206 65.257973 0.000000 0.000048 -9.653644 -10.991207 8.172759 127.960510 -0.000026 0.000015 -9.127275 -15.388956 -6.680580 118.922470 0.000008 -0.000024 22.017677 -12.913207 15.763004 -18.036051 2.400605 89.379440 -6.191078 -1.855114 17.132302 -65.258018 -0.000000 0.000058 23.110570 22.915293 -10.855985 -127.960472 -0.000017 0.000000 81.376670 41.777067 43.736112 -118.922554 0.000027 0.000063 2.912284 5.684508 33.167692 45.409004 -0.000013 -0.000010 17.701771 -35.440387 -16.530688 0.000016 0.000036 -190.974487 9.777687 47.714616 11.699853 0.000006 0.000014 -200.214981 22.126249 -13.397079 5.076780 0.000007 -68.113495 -29.515837 -0.000001 -0.000002 -0.000000 -45.409000 -0.000012 -0.000034 13.803705 -25.307306 41.367399 -0.000018 0.000037 -190.974518 -21.029758 37.012290 -25.522796 0.000002 0.000008 -200.215057 -36.057962 -4.731429 -5.854551 -0.000010 -68.113495 -29.515841 -0.000001 0.000000 -0.000001 
9.649217 -71.784241 361.253601 -4.923541 13.906467 -1.059965 0.000000 -0.000039 138.847366 -2.694825 -13.108186 -2.916415 -0.000004 -0.000024 110.693993 5.334787 7.501579 -3.631594 -0.000004 -9.081823 70.383942 6.462702 -1.328002 5.926871 18.288343 2.400599 89.379478 0.363771 -6.579470 -21.600046 65.257996 -0.000004 0.000062 -9.576329 -11.016819 8.145848 127.960495 -0.000003 -0.000022 -9.144255 -15.377633 -6.710170 118.922485 -0.000022 0.000037 21.974928 -12.911140 15.762514 -18.036055 2.400599 89.379478 -6.170265 -1.865015 17.133844 -65.258034 -0.000005 -0.000004 23.063565 22.888794 -10.826604 -127.960472 -0.000015 -0.000078 81.374013 41.760658 43.731119 -118.922539 -0.000045 0.000040 2.877590 5.660914 33.199927 45.408997 -0.000017 0.000026 17.756759 -35.395635 -16.538617 -0.000004 0.000038 -190.974487 9.775400 47.696925 11.703246 0.000012 0.000018 -200.214966 22.125848 -13.409199 5.087018 0.000019 -68.113495 -29.515839 0.000003 -0.000000 0.000001 -45.409000 -0.000018 0.000006 13.651780 -25.423077 41.304490 -0.000010 0.000043 -190.974503 -20.889136 37.027593 -25.528698 -0.000014 0.000042 -200.214966 -35.980767 -4.690698 -5.821911 0.000010 -68.113487 -29.515841 0.000001 0.000002 0.000000 
